<svg width="18" height="16" viewBox="0 0 18 16" fill="none" xmlns="http://www.w3.org/2000/svg">
<path d="M10.1594 0.37861C9.73108 0.1306 9.24492 0 8.75 0C8.25508 0 7.76892 0.1306 7.34062 0.37861L1.40313 3.81611C0.976255 4.0633 0.621903 4.4184 0.375625 4.84579C0.129346 5.27319 -0.000194515 5.75784 2.19229e-07 6.25111V12.8017C2.19229e-07 13.5477 0.296316 14.263 0.823762 14.7905C1.35121 15.3179 2.06658 15.6142 2.8125 15.6142H14.6875C15.4334 15.6142 16.1488 15.3179 16.6762 14.7905C17.2037 14.263 17.5 13.5477 17.5 12.8017V6.25049C17.5 5.75742 17.3703 5.27303 17.1241 4.84588C16.8778 4.41872 16.5236 4.06381 16.0969 3.81674L10.1594 0.37861ZM7.96688 1.46049C8.20485 1.32265 8.47499 1.25007 8.75 1.25007C9.02501 1.25007 9.29515 1.32265 9.53312 1.46049L15.4706 4.89799C15.6813 5.01986 15.8563 5.18674 15.9869 5.38236L8.75 9.27924L1.51313 5.38299C1.64438 5.18736 1.81938 5.02049 2.02938 4.89861L7.96688 1.46049ZM1.25 6.66049L8.45375 10.5399C8.5448 10.5889 8.64659 10.6145 8.75 10.6145C8.85341 10.6145 8.9552 10.5889 9.04625 10.5399L16.25 6.66049V12.8017C16.25 13.2161 16.0854 13.6136 15.7924 13.9066C15.4993 14.1996 15.1019 14.3642 14.6875 14.3642H2.8125C2.3981 14.3642 2.00067 14.1996 1.70765 13.9066C1.41462 13.6136 1.25 13.2161 1.25 12.8017V6.66049Z" fill="#697588"/>
</svg>
