<svg width="20" height="21" viewBox="0 0 20 21" fill="none" xmlns="http://www.w3.org/2000/svg">
<mask id="path-1-inside-1_3708_106256" fill="white">
<path d="M7.97422 16.468C7.81589 16.468 7.65755 16.4067 7.53255 16.2755L2.47422 10.9642C2.23255 10.7105 2.23255 10.2905 2.47422 10.0367L7.53255 4.72547C7.77422 4.47172 8.17422 4.47172 8.41589 4.72547C8.65755 4.97922 8.65755 5.39922 8.41589 5.65297L3.79922 10.5005L8.41589 15.348C8.65755 15.6017 8.65755 16.0217 8.41589 16.2755C8.29922 16.4067 8.13255 16.468 7.97422 16.468Z"/>
</mask>
<path d="M7.97422 16.468C7.81589 16.468 7.65755 16.4067 7.53255 16.2755L2.47422 10.9642C2.23255 10.7105 2.23255 10.2905 2.47422 10.0367L7.53255 4.72547C7.77422 4.47172 8.17422 4.47172 8.41589 4.72547C8.65755 4.97922 8.65755 5.39922 8.41589 5.65297L3.79922 10.5005L8.41589 15.348C8.65755 15.6017 8.65755 16.0217 8.41589 16.2755C8.29922 16.4067 8.13255 16.468 7.97422 16.468Z" fill="#191F38"/>
<path d="M7.53255 16.2755L6.44635 17.31L6.44635 17.31L7.53255 16.2755ZM2.47422 10.9642L3.56043 9.92974L3.56043 9.92974L2.47422 10.9642ZM2.47422 10.0367L3.56043 11.0712L3.56043 11.0712L2.47422 10.0367ZM7.53255 4.72547L6.44635 3.69099L6.44635 3.69099L7.53255 4.72547ZM8.41589 5.65297L9.50209 6.68745L9.50209 6.68745L8.41589 5.65297ZM3.79922 10.5005L2.71301 9.46599L1.72779 10.5005L2.71301 11.535L3.79922 10.5005ZM8.41589 15.348L7.32968 16.3825L7.32968 16.3825L8.41589 15.348ZM8.41589 16.2755L7.32968 15.241L7.3119 15.2597L7.29477 15.2789L8.41589 16.2755ZM7.97422 16.468V14.968C8.21592 14.968 8.4535 15.0675 8.61876 15.241L7.53255 16.2755L6.44635 17.31C6.86161 17.746 7.41585 17.968 7.97422 17.968V16.468ZM7.53255 16.2755L8.61876 15.241L3.56043 9.92974L2.47422 10.9642L1.38801 11.9987L6.44635 17.31L7.53255 16.2755ZM2.47422 10.9642L3.56043 9.92974C3.72763 10.1053 3.79297 10.3175 3.79297 10.5005C3.79297 10.6834 3.72763 10.8956 3.56043 11.0712L2.47422 10.0367L1.38801 9.00224C0.594621 9.8353 0.594621 11.1656 1.38801 11.9987L2.47422 10.9642ZM2.47422 10.0367L3.56043 11.0712L8.61876 5.75995L7.53255 4.72547L6.44635 3.69099L1.38801 9.00224L2.47422 10.0367ZM7.53255 4.72547L8.61876 5.75995C8.26929 6.12689 7.67915 6.12689 7.32968 5.75995L8.41589 4.72547L9.50209 3.69099C8.66929 2.81655 7.27915 2.81655 6.44635 3.69099L7.53255 4.72547ZM8.41589 4.72547L7.32968 5.75995C7.16248 5.58439 7.09714 5.37219 7.09714 5.18922C7.09714 5.00625 7.16248 4.79405 7.32968 4.61849L8.41589 5.65297L9.50209 6.68745C10.2955 5.85439 10.2955 4.52405 9.50209 3.69099L8.41589 4.72547ZM8.41589 5.65297L7.32968 4.61849L2.71301 9.46599L3.79922 10.5005L4.88543 11.535L9.50209 6.68745L8.41589 5.65297ZM3.79922 10.5005L2.71301 11.535L7.32968 16.3825L8.41589 15.348L9.50209 14.3135L4.88543 9.46599L3.79922 10.5005ZM8.41589 15.348L7.32968 16.3825C7.16248 16.2069 7.09714 15.9947 7.09714 15.8117C7.09714 15.6287 7.16248 15.4165 7.32968 15.241L8.41589 16.2755L9.50209 17.31C10.2955 16.4769 10.2955 15.1465 9.50209 14.3135L8.41589 15.348ZM8.41589 16.2755L7.29477 15.2789C7.50076 15.0472 7.76483 14.968 7.97422 14.968V16.468V17.968C8.50028 17.968 9.09768 17.7662 9.537 17.272L8.41589 16.2755Z" fill="#191F38" mask="url(#path-1-inside-1_3708_106256)"/>
<mask id="path-3-inside-2_3708_106256" fill="white">
<path d="M17.0836 11.1563L3.05859 11.1562C2.71693 11.1562 2.43359 10.8587 2.43359 10.5C2.43359 10.1413 2.71693 9.84375 3.05859 9.84375L17.0836 9.84375C17.4253 9.84375 17.7086 10.1413 17.7086 10.5C17.7086 10.8587 17.4253 11.1563 17.0836 11.1563Z"/>
</mask>
<path d="M17.0836 11.1563L3.05859 11.1562C2.71693 11.1562 2.43359 10.8587 2.43359 10.5C2.43359 10.1413 2.71693 9.84375 3.05859 9.84375L17.0836 9.84375C17.4253 9.84375 17.7086 10.1413 17.7086 10.5C17.7086 10.8587 17.4253 11.1563 17.0836 11.1563Z" fill="#191F38"/>
<path d="M17.0836 11.1563V9.65625L3.05859 9.65625V11.1562L3.05859 12.6562L17.0836 12.6563V11.1563ZM3.05859 11.1562V9.65625C3.61348 9.65625 3.93359 10.1001 3.93359 10.5H2.43359H0.933594C0.933594 11.6174 1.82038 12.6562 3.05859 12.6562L3.05859 11.1562ZM2.43359 10.5H3.93359C3.93359 10.8999 3.61348 11.3438 3.05859 11.3438V9.84375V8.34375C1.82038 8.34375 0.933594 9.38263 0.933594 10.5H2.43359ZM3.05859 9.84375V11.3438L17.0836 11.3438V9.84375V8.34375L3.05859 8.34375V9.84375ZM17.0836 9.84375V11.3438C16.5287 11.3438 16.2086 10.8999 16.2086 10.5H17.7086L19.2086 10.5C19.2086 9.38263 18.3218 8.34375 17.0836 8.34375V9.84375ZM17.7086 10.5H16.2086C16.2086 10.1001 16.5287 9.65625 17.0836 9.65625V11.1563V12.6563C18.3218 12.6563 19.2086 11.6174 19.2086 10.5L17.7086 10.5Z" fill="#191F38" mask="url(#path-3-inside-2_3708_106256)"/>
</svg>
