<svg width="10" height="12" viewBox="0 0 10 12" fill="none" xmlns="http://www.w3.org/2000/svg">
<path d="M5.78125 11.25H0V0H5.3125C5.93885 3.72804e-05 6.55211 0.179345 7.07982 0.516741C7.60753 0.854137 8.02764 1.33552 8.29054 1.90403C8.55343 2.47254 8.64812 3.10442 8.56341 3.72501C8.4787 4.34561 8.21814 4.92899 7.8125 5.40625C8.34233 5.82997 8.72779 6.40751 8.91582 7.05935C9.10386 7.7112 9.08522 8.4053 8.86248 9.04612C8.63974 9.68693 8.22384 10.2429 7.67204 10.6376C7.12024 11.0323 6.45966 11.2463 5.78125 11.25ZM1.875 9.375H5.76875C5.95342 9.375 6.13628 9.33863 6.3069 9.26796C6.47751 9.19729 6.63254 9.0937 6.76312 8.96312C6.8937 8.83254 6.99729 8.67751 7.06796 8.5069C7.13863 8.33628 7.175 8.15342 7.175 7.96875C7.175 7.78408 7.13863 7.60122 7.06796 7.4306C6.99729 7.25999 6.8937 7.10496 6.76312 6.97438C6.63254 6.8438 6.47751 6.74021 6.3069 6.66954C6.13628 6.59887 5.95342 6.5625 5.76875 6.5625H1.875V9.375ZM1.875 4.6875H5.3125C5.49717 4.6875 5.68003 4.65113 5.85065 4.58046C6.02126 4.50978 6.17629 4.4062 6.30687 4.27562C6.43745 4.14504 6.54104 3.99001 6.61171 3.8194C6.68238 3.64878 6.71875 3.46592 6.71875 3.28125C6.71875 3.09658 6.68238 2.91372 6.61171 2.7431C6.54104 2.57249 6.43745 2.41746 6.30687 2.28688C6.17629 2.1563 6.02126 2.05272 5.85065 1.98204C5.68003 1.91137 5.49717 1.875 5.3125 1.875H1.875V4.6875Z" fill="#191F38"/>
</svg>
