<svg width="18" height="18" viewBox="0 0 18 18" fill="none" xmlns="http://www.w3.org/2000/svg">
<g clip-path="url(#clip0_1564_32233)">
<path d="M18 13.5C18 14.0304 17.7893 14.5391 17.4142 14.9142C17.0391 15.2893 16.5304 15.5 16 15.5H2C1.46957 15.5 0.960859 15.2893 0.585786 14.9142C0.210714 14.5391 0 14.0304 0 13.5V4.5C0 3.96957 0.210714 3.46086 0.585786 3.08579C0.960859 2.71071 1.46957 2.5 2 2.5H16C16.5304 2.5 17.0391 2.71071 17.4142 3.08579C17.7893 3.46086 18 3.96957 18 4.5V13.5Z" fill="#006A4D"/>
<path d="M8 12.25C9.933 12.25 11.5 10.683 11.5 8.75C11.5 6.817 9.933 5.25 8 5.25C6.067 5.25 4.5 6.817 4.5 8.75C4.5 10.683 6.067 12.25 8 12.25Z" fill="#F42A41"/>
</g>
<defs>
<clipPath id="clip0_1564_32233">
<rect width="18" height="18" fill="white"/>
</clipPath>
</defs>
</svg>
