<svg width="20" height="20" viewBox="0 0 20 20" fill="none" xmlns="http://www.w3.org/2000/svg">
<path d="M7.58301 1.54199H12.416C12.7064 1.54199 13.0636 1.62087 13.4131 1.76562C13.7628 1.91049 14.0675 2.10635 14.2676 2.30957L14.2705 2.3125L17.6875 5.72852C17.8927 5.93376 18.0893 6.24268 18.2344 6.59277C18.3794 6.94297 18.458 7.29843 18.458 7.58398V12.417C18.458 12.7074 18.3791 13.0647 18.2344 13.4141C18.0896 13.7637 17.8936 14.0685 17.6904 14.2686L14.2705 17.6885C13.8387 18.1201 13.0243 18.459 12.416 18.459H7.58301C7.29272 18.459 6.93525 18.38 6.58594 18.2354C6.23618 18.0905 5.9305 17.8947 5.73047 17.6914L5.72754 17.6885L2.31152 14.2715C2.10634 14.0663 1.90966 13.7582 1.76465 13.4082C1.61957 13.058 1.54102 12.7026 1.54102 12.417V7.58398C1.54102 7.29366 1.61997 6.93626 1.76465 6.58691C1.90953 6.23716 2.10533 5.93148 2.30859 5.73145L5.72754 2.3125C5.93278 2.10726 6.24171 1.91065 6.5918 1.76562C6.94202 1.62055 7.29743 1.54199 7.58301 1.54199ZM7.58301 1.79199C7.29047 1.79199 6.96222 1.87973 6.68262 1.99512C6.40635 2.10915 6.11133 2.27742 5.9043 2.48828L2.48242 5.91016C2.28226 6.11621 2.11535 6.40682 1.99902 6.68457C1.88323 6.96108 1.79102 7.28846 1.79102 7.58398V12.417C1.79102 12.7096 1.87872 13.0377 1.99414 13.3174C2.10812 13.5935 2.27662 13.8877 2.4873 14.0947V14.0957L5.90918 17.5176C6.11523 17.7177 6.40588 17.8847 6.68359 18.001C6.96008 18.1167 7.28753 18.209 7.58301 18.209H12.416C12.7086 18.209 13.0368 18.1203 13.3164 18.0049C13.5926 17.8909 13.8868 17.7225 14.0938 17.5117L14.0947 17.5127L17.5166 14.0908C17.7168 13.8848 17.8837 13.5941 18 13.3164C18.1158 13.0399 18.208 12.7125 18.208 12.417V7.58398C18.208 7.29138 18.1193 6.96323 18.0039 6.68359C17.8898 6.40719 17.7217 6.11231 17.5107 5.90527H17.5117L14.0898 2.4834L13.9209 2.33984C13.7393 2.20284 13.5238 2.08728 13.3154 2C13.0389 1.88419 12.7116 1.79199 12.416 1.79199H7.58301Z" fill="#292D32" stroke="#697588"/>
<path d="M15.9004 3.99414C15.9362 3.99414 15.9668 4.00777 15.9883 4.0293C16.0098 4.05082 16.0234 4.08137 16.0234 4.11719C16.0234 4.15298 16.0098 4.18358 15.9883 4.20508L4.20508 15.9883C4.19058 16.0028 4.17679 16.0114 4.16406 16.0166C4.15077 16.022 4.13481 16.0254 4.11719 16.0254C4.09951 16.0254 4.08363 16.022 4.07031 16.0166C4.05755 16.0114 4.04386 16.0028 4.0293 15.9883C4.00777 15.9668 3.99414 15.9362 3.99414 15.9004C3.99414 15.8645 4.00777 15.834 4.0293 15.8125L15.8125 4.0293C15.834 4.00777 15.8645 3.99414 15.9004 3.99414Z" fill="#292D32" stroke="#697588"/>
</svg>
