<svg width="24" height="24" viewBox="0 0 24 24" fill="none" xmlns="http://www.w3.org/2000/svg">
<path d="M0 10.6667C0 6.93298 0 5.06614 0.726623 3.64006C1.36578 2.38565 2.38565 1.36578 3.64006 0.726623C5.06614 0 6.93298 0 10.6667 0H13.3333C17.067 0 18.9339 0 20.3599 0.726623C21.6144 1.36578 22.6342 2.38565 23.2734 3.64006C24 5.06614 24 6.93298 24 10.6667V13.3333C24 17.067 24 18.9339 23.2734 20.3599C22.6342 21.6144 21.6144 22.6342 20.3599 23.2734C18.9339 24 17.067 24 13.3333 24H10.6667C6.93298 24 5.06614 24 3.64006 23.2734C2.38565 22.6342 1.36578 21.6144 0.726623 20.3599C0 18.9339 0 17.067 0 13.3333V10.6667Z" fill="#4157FE"/>
<path d="M6.75 12.75L10.25 16.25L17.25 8.75" stroke="white" stroke-width="1.5" stroke-linecap="round" stroke-linejoin="round"/>
</svg>
