<svg width="20" height="20" viewBox="0 0 20 20" fill="none" xmlns="http://www.w3.org/2000/svg">
<path opacity="0.4" d="M17.084 8.49199H14.6757C12.7007 8.49199 11.0923 6.88366 11.0923 4.90866V2.50033C11.0923 2.04199 10.7173 1.66699 10.259 1.66699H6.72565C4.15898 1.66699 2.08398 3.33366 2.08398 6.30866V13.692C2.08398 16.667 4.15898 18.3337 6.72565 18.3337H13.2757C15.8423 18.3337 17.9173 16.667 17.9173 13.692V9.32532C17.9173 8.86699 17.5423 8.49199 17.084 8.49199Z" fill="#FF7816"/>
<path d="M13.1676 1.84107C12.826 1.49945 12.2344 1.73275 12.2344 2.2077V5.11569C12.2344 6.33221 13.2676 7.34042 14.5258 7.34042C15.3173 7.34876 16.4172 7.34876 17.3588 7.34876C17.8337 7.34876 18.0837 6.79049 17.7504 6.45719C16.5505 5.249 14.4008 3.07426 13.1676 1.84107Z" fill="#FF7816"/>
<path d="M5.03757 14.3564V10.1537H6.6136C6.93646 10.1537 7.20734 10.2139 7.42623 10.3343C7.64649 10.4547 7.81271 10.6202 7.9249 10.8309C8.03845 11.0402 8.09522 11.2783 8.09522 11.5451C8.09522 11.8146 8.03845 12.054 7.9249 12.2633C7.81135 12.4726 7.64376 12.6375 7.42213 12.7578C7.2005 12.8769 6.92757 12.9364 6.60334 12.9364H5.55881V12.3105H6.50073C6.68952 12.3105 6.84412 12.2777 6.96451 12.212C7.0849 12.1463 7.17382 12.056 7.23128 11.9411C7.29011 11.8262 7.31952 11.6942 7.31952 11.5451C7.31952 11.3959 7.29011 11.2646 7.23128 11.151C7.17382 11.0375 7.08421 10.9493 6.96246 10.8863C6.84206 10.822 6.68679 10.7899 6.49663 10.7899H5.79891V14.3564H5.03757ZM9.89174 14.3564H8.46758V10.1537H9.92047C10.3377 10.1537 10.6962 10.2379 10.9958 10.4061C11.2968 10.573 11.528 10.8131 11.6894 11.1264C11.8508 11.4397 11.9315 11.8146 11.9315 12.251C11.9315 12.6888 11.8501 13.065 11.6873 13.3796C11.5259 13.6943 11.2927 13.9358 10.9876 14.104C10.6839 14.2723 10.3186 14.3564 9.89174 14.3564ZM9.22891 13.6977H9.85481C10.1476 13.6977 10.3918 13.6444 10.5874 13.5377C10.783 13.4296 10.9301 13.2688 11.0286 13.0554C11.1271 12.8406 11.1764 12.5725 11.1764 12.251C11.1764 11.9295 11.1271 11.6627 11.0286 11.4507C10.9301 11.2372 10.7844 11.0779 10.5915 10.9725C10.4 10.8658 10.1619 10.8124 9.87738 10.8124H9.22891V13.6977ZM12.366 14.3564V10.1537H15.0583V10.7919H13.1273V11.9329H14.8737V12.5711H13.1273V14.3564H12.366Z" fill="#A4541A"/>
</svg>
