<svg width="18" height="18" viewBox="0 0 18 18" fill="none" xmlns="http://www.w3.org/2000/svg">
<path d="M9 15.375H5.25C3 15.375 1.5 14.25 1.5 11.625V6.375C1.5 3.75 3 2.625 5.25 2.625H12.75C15 2.625 16.5 3.75 16.5 6.375V8.625" stroke="#4157FE" stroke-width="1.5" stroke-miterlimit="10" stroke-linecap="round" stroke-linejoin="round"/>
<path d="M12.75 6.75L10.4025 8.625C9.63 9.24 8.3625 9.24 7.59 8.625L5.25 6.75" stroke="#4157FE" stroke-width="1.5" stroke-miterlimit="10" stroke-linecap="round" stroke-linejoin="round"/>
<path d="M14.4083 11.0772L11.7533 13.7322C11.6483 13.8372 11.5508 14.0322 11.5283 14.1747L11.3858 15.1872C11.3333 15.5547 11.5883 15.8097 11.9558 15.7572L12.9683 15.6147C13.1108 15.5922 13.3133 15.4947 13.4108 15.3897L16.0658 12.7347C16.5233 12.2772 16.7408 11.7447 16.0658 11.0697C15.3983 10.4022 14.8658 10.6197 14.4083 11.0772Z" stroke="#4157FE" stroke-width="1.5" stroke-miterlimit="10" stroke-linecap="round" stroke-linejoin="round"/>
<path d="M14.0254 11.46C14.2504 12.27 14.8804 12.9 15.6904 13.125" stroke="#4157FE" stroke-width="1.5" stroke-miterlimit="10" stroke-linecap="round" stroke-linejoin="round"/>
</svg>
