<svg width="20" height="20" viewBox="0 0 20 20" fill="none" xmlns="http://www.w3.org/2000/svg">
<path d="M4.50098 1.625H15.501C16.4914 1.62518 17.292 2.42658 17.292 3.41699V5.25C17.292 5.59426 17.1865 5.98876 17.0137 6.36426C16.843 6.73493 16.6228 7.04987 16.4277 7.24707L12.8359 10.4258C12.587 10.6375 12.3946 10.9411 12.2646 11.2432C12.1311 11.5536 12.042 11.9104 12.042 12.25V15.833C12.042 16.1055 11.9541 16.4249 11.7959 16.7178C11.6367 17.0125 11.4304 17.2374 11.2354 17.3545L11.2285 17.3584L11.2217 17.3633L10.0762 18.1016C9.78249 18.2838 9.44995 18.375 9.11719 18.375C8.80413 18.375 8.49601 18.2973 8.20215 18.1377C7.62473 17.8161 7.28423 17.2404 7.28418 16.5918V12.1748C7.28414 11.8743 7.18943 11.545 7.07715 11.2695C6.96287 10.9892 6.80624 10.7076 6.6377 10.501L6.62695 10.4863L6.61426 10.4736L3.49707 7.17383L3.49219 7.16797L3.4873 7.16309C3.27655 6.95229 3.07729 6.651 2.93164 6.32129C2.78498 5.98924 2.70905 5.66524 2.70898 5.41699V3.5C2.70898 2.42629 3.51002 1.625 4.50098 1.625ZM4.50098 1.875C3.60689 1.875 2.95898 2.62645 2.95898 3.5V5.41699C2.95906 5.67398 3.05338 5.97659 3.16699 6.23047C3.28288 6.48943 3.45239 6.77136 3.66309 6.98535V6.98633L6.82422 10.3135C7.19634 10.7803 7.54199 11.538 7.54199 12.167V16.583C7.54199 17.3952 8.11227 17.7956 8.34277 17.917V17.916C8.83548 18.1829 9.44895 18.1931 9.9375 17.8926L9.94531 17.8877L11.1035 17.1465L11.1025 17.1455C11.3269 17.0055 11.4934 16.77 11.5977 16.5703C11.7064 16.3619 11.8008 16.0922 11.8008 15.833V12.25C11.8008 11.4905 12.1794 10.6529 12.6797 10.2324L12.6807 10.2334L12.6904 10.2246L16.2568 7.06641L16.2686 7.05566L16.2793 7.04492C16.4767 6.84742 16.6636 6.55145 16.7998 6.25195C16.9355 5.95358 17.0508 5.58699 17.0508 5.24121V3.41699C17.0508 2.56585 16.3599 1.875 15.5088 1.875H4.50098Z" fill="#292D32" stroke="#697588"/>
<path d="M9.16602 1.63965C9.22899 1.67923 9.24195 1.75588 9.20898 1.80859L9.20801 1.81055L5.09961 8.39355L5.09668 8.39844C5.07037 8.44155 5.03211 8.45801 4.99902 8.45801C4.98575 8.458 4.96393 8.45525 4.92285 8.43555C4.8704 8.39503 4.8564 8.31858 4.88867 8.2666L4.88965 8.26465L8.99805 1.68164L8.99707 1.68066C9.03685 1.61894 9.1137 1.60707 9.16602 1.63965Z" fill="#292D32" stroke="#697588"/>
</svg>
