<svg width="15" height="14" viewBox="0 0 15 14" fill="none" xmlns="http://www.w3.org/2000/svg">
<path d="M5 3.125H12.6156L10.3737 0.88375L11.25 0L15 3.75L11.25 7.5L10.3737 6.61563L12.6137 4.375H5C4.00544 4.375 3.05161 4.77009 2.34835 5.47335C1.64509 6.17661 1.25 7.13044 1.25 8.125C1.25 9.11956 1.64509 10.0734 2.34835 10.7767C3.05161 11.4799 4.00544 11.875 5 11.875H10V13.125H5C3.67392 13.125 2.40215 12.5982 1.46447 11.6605C0.526784 10.7229 0 9.45108 0 8.125C0 6.79892 0.526784 5.52715 1.46447 4.58947C2.40215 3.65178 3.67392 3.125 5 3.125V3.125Z" fill="#191F38"/>
</svg>
