<svg width="15" height="14" viewBox="0 0 15 14" fill="none" xmlns="http://www.w3.org/2000/svg">
<path d="M10 3.125H2.38438L4.62625 0.88375L3.75 0L0 3.75L3.75 7.5L4.62625 6.61563L2.38625 4.375H10C10.9946 4.375 11.9484 4.77009 12.6517 5.47335C13.3549 6.17661 13.75 7.13044 13.75 8.125C13.75 9.11956 13.3549 10.0734 12.6517 10.7767C11.9484 11.4799 10.9946 11.875 10 11.875H5V13.125H10C11.3261 13.125 12.5979 12.5982 13.5355 11.6605C14.4732 10.7229 15 9.45108 15 8.125C15 6.79892 14.4732 5.52715 13.5355 4.58947C12.5979 3.65178 11.3261 3.125 10 3.125Z" fill="#191F38"/>
</svg>
