<svg width="20" height="20" viewBox="0 0 20 20" fill="none" xmlns="http://www.w3.org/2000/svg">
<path d="M18.0583 11.917L17.725 16.0837C17.6 17.3587 17.5 18.3337 15.2416 18.3337H4.7583C2.49997 18.3337 2.39997 17.3587 2.27497 16.0837L1.94163 11.917C1.87497 11.2253 2.09163 10.5837 2.4833 10.092C2.49163 10.0837 2.49163 10.0837 2.49997 10.0753C2.9583 9.51699 3.64997 9.16699 4.42497 9.16699H15.575C16.35 9.16699 17.0333 9.51699 17.4833 10.0587C17.4916 10.067 17.5 10.0753 17.5 10.0837C17.9083 10.5753 18.1333 11.217 18.0583 11.917Z" stroke="#191F38" stroke-width="1.5" stroke-miterlimit="10"/>
<path d="M2.91602 9.52474V5.23307C2.91602 2.39974 3.62435 1.69141 6.45768 1.69141H7.51602C8.57435 1.69141 8.81602 2.00807 9.21602 2.54141L10.2743 3.95807C10.541 4.30807 10.6993 4.52474 11.4077 4.52474H13.5327C16.366 4.52474 17.0743 5.23307 17.0743 8.06641V9.55807" stroke="#191F38" stroke-width="1.5" stroke-miterlimit="10" stroke-linecap="round" stroke-linejoin="round"/>
<path d="M7.85742 14.167H12.1408" stroke="#191F38" stroke-width="1.5" stroke-miterlimit="10" stroke-linecap="round" stroke-linejoin="round"/>
</svg>
