<svg width="18" height="18" viewBox="0 0 18 18" fill="none" xmlns="http://www.w3.org/2000/svg">
<path d="M17.1487 9.1075L12.1581 4.11625C11.9236 3.88187 11.6056 3.75021 11.2741 3.75021C10.9425 3.75021 10.6245 3.88187 10.39 4.11625L7.04125 7.465L4.375 0H3.125L0 8.75H1.25L1.87438 6.875H5.62437L6.12625 8.38L1.61625 12.89C1.50012 13.0061 1.408 13.1439 1.34515 13.2956C1.2823 13.4473 1.24995 13.6099 1.24995 13.7741C1.24995 13.9383 1.2823 14.1008 1.34515 14.2525C1.408 14.4042 1.50012 14.542 1.61625 14.6581L4.4575 17.5H10.4513L17.1487 10.8019C17.2601 10.6906 17.3484 10.5585 17.4087 10.4131C17.469 10.2677 17.5 10.1118 17.5 9.95438C17.5 9.79696 17.469 9.6411 17.4087 9.49568C17.3484 9.35026 17.2601 9.21814 17.1487 9.10687V9.1075ZM2.29062 5.625L3.7475 1.25L5.2075 5.625H2.29062ZM9.93438 16.25H4.975L2.5 13.7738L6.445 9.82937L11.4 14.7837L9.93438 16.25ZM12.2844 13.9L7.32938 8.94562L11.2744 5L16.2287 9.95438L12.2844 13.9Z" fill="#191F38"/>
</svg>
