<svg width="20" height="20" viewBox="0 0 20 20" fill="none" xmlns="http://www.w3.org/2000/svg">
<g clip-path="url(#clip0_1879_44811)">
<path d="M8 4C8 5.10457 8.89543 6 10 6C11.1046 6 12 5.10457 12 4C12 2.89543 11.1046 2 10 2C8.89543 2 8 2.89543 8 4Z" fill="#191F38"/>
<path d="M8 10C8 11.1046 8.89543 12 10 12C11.1046 12 12 11.1046 12 10C12 8.89543 11.1046 8 10 8C8.89543 8 8 8.89543 8 10Z" fill="#191F38"/>
<path d="M8 17C8 18.1046 8.89543 19 10 19C11.1046 19 12 18.1046 12 17C12 15.8954 11.1046 15 10 15C8.89543 15 8 15.8954 8 17Z" fill="#191F38"/>
</g>
<defs>
<clipPath id="clip0_1879_44811">
<rect width="20" height="20" fill="white" transform="translate(20 1.76344e-06) rotate(90)"/>
</clipPath>
</defs>
</svg>
