<svg width="17" height="13" viewBox="0 0 17 13" fill="none" xmlns="http://www.w3.org/2000/svg">
<path d="M1.875 3.75C2.91053 3.75 3.75 2.91053 3.75 1.875C3.75 0.839466 2.91053 0 1.875 0C0.839466 0 0 0.839466 0 1.875C0 2.91053 0.839466 3.75 1.875 3.75Z" fill="#191F38"/>
<path d="M1.875 12.5C2.91053 12.5 3.75 11.6605 3.75 10.625C3.75 9.58947 2.91053 8.75 1.875 8.75C0.839466 8.75 0 9.58947 0 10.625C0 11.6605 0.839466 12.5 1.875 12.5Z" fill="#191F38"/>
<path d="M7.5 10H16.25V11.25H7.5V10ZM7.5 1.25H16.25V2.5H7.5V1.25Z" fill="#191F38"/>
</svg>
