<svg width="17" height="15" viewBox="0 0 17 15" fill="none" xmlns="http://www.w3.org/2000/svg">
<path d="M7.5 11.25H16.25V12.5H7.5V11.25ZM7.5 2.5H16.25V3.75H7.5V2.5ZM2.5 5V0H1.25V0.625H0V1.875H1.25V5H0V6.25H3.75V5H2.5ZM3.75 15H0V12.5C0 12.1685 0.131696 11.8505 0.366116 11.6161C0.600537 11.3817 0.918479 11.25 1.25 11.25H2.5V10H0V8.75H2.5C2.83152 8.75 3.14946 8.8817 3.38388 9.11612C3.6183 9.35054 3.75 9.66848 3.75 10V11.25C3.75 11.5815 3.6183 11.8995 3.38388 12.1339C3.14946 12.3683 2.83152 12.5 2.5 12.5H1.25V13.75H3.75V15Z" fill="#191F38"/>
</svg>
