<svg width="15" height="13" viewBox="0 0 15 13" fill="none" xmlns="http://www.w3.org/2000/svg">
<path d="M15 5.64101H8.7225C8.44498 5.56639 8.16619 5.49658 7.88625 5.43163C6.13125 5.01663 5.13875 4.71288 5.13875 3.29226C5.1245 3.04702 5.16081 2.80147 5.24542 2.57085C5.33004 2.34023 5.46115 2.12946 5.63062 1.95163C6.1615 1.51507 6.82644 1.27452 7.51375 1.27038C9.2825 1.22663 10.0981 1.82663 10.765 2.73913L11.7744 2.00163C11.3019 1.3231 10.6578 0.782163 9.90777 0.434074C9.15779 0.0859855 8.32884 -0.0567739 7.50563 0.0203814C6.49439 0.0268377 5.51887 0.395097 4.75563 1.05851C4.46634 1.35194 4.24024 1.70153 4.09125 2.0857C3.94227 2.46988 3.87356 2.88051 3.88937 3.29226C3.86197 3.74281 3.9466 4.19314 4.13572 4.60299C4.32483 5.01285 4.61254 5.36948 4.97312 5.64101H0V6.89101H8.5325C9.76188 7.24726 10.4969 7.71101 10.5156 8.98976C10.5359 9.26291 10.4985 9.53728 10.4056 9.79498C10.3128 10.0527 10.1667 10.2879 9.97687 10.4854C9.31551 11.0067 8.49384 11.2826 7.65188 11.266C7.02345 11.2478 6.40738 11.0869 5.85029 10.7955C5.2932 10.5042 4.80966 10.0899 4.43625 9.58413L3.47812 10.3866C3.96358 11.0336 4.58994 11.5615 5.30972 11.9305C6.02951 12.2994 6.82384 12.4996 7.6325 12.516H7.695C8.84924 12.5293 9.96951 12.1256 10.85 11.3791C11.1625 11.0641 11.4054 10.6869 11.5632 10.2722C11.7209 9.85736 11.7898 9.41411 11.7656 8.97101C11.789 8.21303 11.5332 7.47287 11.0469 6.89101H15V5.64101Z" fill="#191F38"/>
</svg>
