<svg width="19" height="15" viewBox="0 0 19 15" fill="none" xmlns="http://www.w3.org/2000/svg">
<path d="M17.6748 1.10296C17.3265 0.753357 16.9125 0.475969 16.4567 0.286699C16.0008 0.0974285 15.5121 0 15.0186 0C14.525 0 14.0363 0.0974285 13.5805 0.286699C13.1247 0.475969 12.7107 0.753357 12.3623 1.10296L13.2498 1.99046C13.4825 1.75777 13.7588 1.57319 14.0628 1.44727C14.3668 1.32134 14.6927 1.25652 15.0217 1.25652C15.3508 1.25652 15.6766 1.32134 15.9807 1.44727C16.2847 1.57319 16.5609 1.75777 16.7936 1.99046C17.0263 2.22314 17.2109 2.49938 17.3368 2.8034C17.4627 3.10742 17.5275 3.43326 17.5275 3.76233C17.5275 4.0914 17.4627 4.41724 17.3368 4.72126C17.2109 5.02528 17.0263 5.30152 16.7936 5.53421L11.7936 10.5342C11.3245 11.0041 10.6879 11.2685 10.0239 11.2691C9.35994 11.2696 8.7229 11.0064 8.25297 10.5373C7.78304 10.0682 7.51871 9.43166 7.51812 8.76767C7.51754 8.10367 7.78075 7.46664 8.24985 6.99671L9.1311 6.10921L8.24985 5.22171L7.36235 6.10921C7.01275 6.4576 6.73536 6.87157 6.54609 7.32739C6.35682 7.78321 6.25939 8.2719 6.25939 8.76546C6.25939 9.25901 6.35682 9.74771 6.54609 10.2035C6.73536 10.6593 7.01275 11.0733 7.36235 11.4217C8.06953 12.1198 9.02489 12.5087 10.0186 12.503C10.514 12.505 11.005 12.4088 11.4631 12.22C11.9211 12.0312 12.3372 11.7535 12.6873 11.403L17.6873 6.40296C18.3879 5.69818 18.7801 4.74412 18.7778 3.75037C18.7755 2.75662 18.3788 1.80443 17.6748 1.10296Z" fill="#191F38"/>
<path d="M2.01235 12.3905C1.77897 12.1582 1.59378 11.882 1.46741 11.578C1.34105 11.2739 1.276 10.9479 1.276 10.6186C1.276 10.2893 1.34105 9.96326 1.46741 9.65919C1.59378 9.35512 1.77897 9.079 2.01235 8.84671L7.01235 3.84671C7.24464 3.61333 7.52076 3.42814 7.82483 3.30177C8.1289 3.17541 8.45494 3.11036 8.78422 3.11036C9.1135 3.11036 9.43955 3.17541 9.74362 3.30177C10.0477 3.42814 10.3238 3.61333 10.5561 3.84671C10.788 4.08083 10.9706 4.35912 11.0929 4.66509C11.2153 4.97106 11.2751 5.29848 11.2686 5.62796C11.2705 5.95846 11.2069 6.28606 11.0813 6.59181C10.9558 6.89755 10.7709 7.17538 10.5373 7.40921L9.21235 8.75296L10.0998 9.64046L11.4248 8.31546C12.1302 7.61015 12.5264 6.65354 12.5264 5.65608C12.5264 4.65862 12.1302 3.70202 11.4248 2.99671C10.7195 2.2914 9.76293 1.89516 8.76547 1.89516C7.76801 1.89516 6.81141 2.2914 6.1061 2.99671L1.1061 7.99671C0.755557 8.34521 0.477374 8.75957 0.287549 9.21597C0.0977231 9.67236 0 10.1618 0 10.6561C0 11.1504 0.0977231 11.6398 0.287549 12.0962C0.477374 12.5526 0.755557 12.967 1.1061 13.3155C1.81786 14.0083 2.77541 14.3904 3.7686 14.378C4.77054 14.3789 5.73217 13.9835 6.4436 13.278L5.5561 12.3905C5.3238 12.6238 5.04769 12.809 4.74362 12.9354C4.43954 13.0618 4.11351 13.1268 3.78422 13.1268C3.45494 13.1268 3.1289 13.0618 2.82483 12.9354C2.52076 12.809 2.24464 12.6238 2.01235 12.3905Z" fill="#191F38"/>
</svg>
