<svg width="132" height="30" viewBox="0 0 132 30" fill="none" xmlns="http://www.w3.org/2000/svg">
<rect y="-0.14209" width="30.142" height="30.142" rx="2.58504" fill="#4157FE"/>
<path d="M21.7432 4.86816L22.6152 5.74024C24.0601 7.18513 24.0601 9.52777 22.6152 10.9727L15.2026 18.3853L14.3306 17.5132C12.8857 16.0683 12.8857 13.7257 14.3306 12.2808L21.7432 4.86816Z" fill="white"/>
<path d="M21.7432 25.144L22.6152 24.272C24.0601 22.8271 24.0601 20.4844 22.6152 19.0395L15.2026 11.6269L14.3306 12.499C12.8857 13.9439 12.8857 16.2865 14.3306 17.7314L21.7432 25.144Z" fill="white"/>
<path d="M11.7871 25.1626L10.4562 25.1626C8.4128 25.1626 6.75631 23.5061 6.75631 21.4627L6.7563 11.0921L8.08723 11.0921C10.1306 11.0921 11.7871 12.7486 11.7871 14.7919L11.7871 25.1626Z" fill="white"/>
<g clip-path="url(#clip0_1562_31663)">
<path d="M6.75098 4.88159H8.08729C10.1277 4.88159 11.7818 6.53567 11.7818 8.57609V11.6417C11.2051 10.3682 9.95012 9.53729 8.55248 9.50366L6.75098 9.46031V4.88159Z" fill="white"/>
</g>
<path d="M120.836 17.5025C120.836 14.1443 123.147 11.7456 126.418 11.7456C129.646 11.7456 131.783 13.5119 132.001 16.3686H129.892C129.15 16.3686 128.586 15.7664 128.048 15.2552C127.694 14.9191 127.197 14.7549 126.549 14.7549C125.132 14.7549 124.216 15.8234 124.216 17.5025C124.216 19.247 125.066 20.2719 126.506 20.2719C127.154 20.2719 127.664 20.1066 128.027 19.7797C128.586 19.2772 129.161 18.6583 129.912 18.6583H132.001C131.783 21.4059 129.559 23.2812 126.506 23.2812C123.06 23.2812 120.836 20.9915 120.836 17.5025Z" fill="#191F38"/>
<path d="M117.203 10.3935C116.135 10.3935 115.284 9.54307 115.284 8.47456C115.284 7.40604 116.135 6.57739 117.203 6.57739C118.25 6.57739 119.1 7.40604 119.1 8.47456C119.1 9.54307 118.25 10.3935 117.203 10.3935ZM117.969 22.9977C116.631 22.9977 115.546 21.9129 115.546 20.5747V12.0944H116.481C117.819 12.0944 118.904 13.1792 118.904 14.5174V22.9977H117.969Z" fill="#191F38"/>
<path d="M111.966 22.9978H111.031C109.693 22.9978 108.608 21.913 108.608 20.5749V14.8858H106.536V12.0946H108.608V8.7146H109.543C110.881 8.7146 111.966 9.79939 111.966 11.1375V12.0946H114.038V14.8858H111.966V22.9978Z" fill="#191F38"/>
<path d="M97.6941 20.5748C97.6941 21.913 96.6093 22.9977 95.2712 22.9977H94.3359V12.0945H97.4979L97.7159 13.2284C98.3919 12.2908 99.6349 11.7456 101.052 11.7456C103.647 11.7456 105.152 13.4029 105.152 16.2595V22.9977H104.217C102.879 22.9977 101.794 21.913 101.794 20.5748V17.0664C101.794 15.6926 101.031 14.7985 99.8748 14.7985C98.5446 14.7985 97.6941 15.6708 97.6941 17.0228V20.5748Z" fill="#191F38"/>
<path d="M86.852 23.2812C83.5592 23.2812 81.2041 20.8825 81.2041 17.5243C81.2041 14.1225 83.4938 11.7456 86.7866 11.7456C90.2102 11.7456 92.3472 13.9917 92.3472 17.5461V18.3966L84.4315 18.4402C84.6277 19.8794 85.4346 20.5554 86.9174 20.5554C88.1822 20.5554 89.0762 20.0975 89.3161 19.3125H89.5433C91.0362 19.3125 92.1755 20.761 91.0947 21.791C90.1015 22.7376 88.6222 23.2812 86.852 23.2812ZM86.8084 14.4714C85.4782 14.4714 84.7367 15.0602 84.4751 16.3686H89.0108C89.0108 15.2128 88.1604 14.4714 86.8084 14.4714Z" fill="#191F38"/>
<path d="M79.7404 22.9972H70.6035V21.1495C70.6035 20.5427 70.8312 19.958 71.2416 19.511L75.4882 14.8852H73.0265C71.6883 14.8852 70.6035 13.8004 70.6035 12.4623V12.094H79.7404V13.9233C79.7404 14.5411 79.5044 15.1356 79.0806 15.5852L74.7249 20.206H77.3175C78.6556 20.206 79.7404 21.2908 79.7404 22.6289V22.9972Z" fill="#191F38"/>
<path d="M62.0642 23.2812C59.7527 23.2812 58.3135 21.9292 58.3135 19.7922C58.3135 17.786 59.7309 16.543 62.3477 16.3468L65.4006 16.1069V15.9324C65.4006 14.8639 64.7464 14.297 63.547 14.297C62.9731 14.297 62.5065 14.3863 62.1543 14.5579C61.3692 14.9402 60.6585 15.8234 59.7852 15.8234H58.5752C58.5752 13.3593 60.6032 11.7456 63.7215 11.7456C66.8834 11.7456 68.6716 13.5119 68.6716 16.6303V22.9977H65.7059L65.4878 21.5585C65.1389 22.5616 63.6997 23.2812 62.0642 23.2812ZM63.2417 20.7953C64.5283 20.7953 65.4224 20.1629 65.4224 18.9199V18.3312L63.7215 18.4838C62.2604 18.6146 61.7371 18.9417 61.7371 19.6395C61.7371 20.4246 62.2168 20.7953 63.2417 20.7953Z" fill="#191F38"/>
<path d="M45.1556 6.8606C46.4938 6.8606 47.5785 7.94538 47.5785 9.28354V14.5801L51.9621 8.76821C52.8681 7.56691 54.2856 6.8606 55.7903 6.8606H57.5659L52.2887 13.7514L57.6095 22.9974H56.318C54.5953 22.9974 53.0051 22.0733 52.1521 20.5767L49.9773 16.7607L47.5785 19.9009V22.9974H46.4177C45.1078 22.9974 44.0459 21.9355 44.0459 20.6256V6.8606H45.1556Z" fill="#191F38"/>
<defs>
<clipPath id="clip0_1562_31663">
<rect width="5.0308" height="6.76014" fill="white" transform="translate(6.75098 4.88159)"/>
</clipPath>
</defs>
</svg>
