<svg width="20" height="20" viewBox="0 0 20 20" fill="none" xmlns="http://www.w3.org/2000/svg">
<path d="M10.8337 18.3334H4.16699C2.50033 18.3334 1.66699 17.5001 1.66699 15.8334V9.16675C1.66699 7.50008 2.50033 6.66675 4.16699 6.66675H8.33366V15.8334C8.33366 17.5001 9.16699 18.3334 10.8337 18.3334Z" stroke="#191F38" stroke-miterlimit="10" stroke-linecap="round" stroke-linejoin="round"/>
<path d="M8.42531 3.33325C8.35865 3.58325 8.33366 3.85825 8.33366 4.16659V6.66659H4.16699V4.99992C4.16699 4.08325 4.91699 3.33325 5.83366 3.33325H8.42531Z" stroke="#191F38" stroke-miterlimit="10" stroke-linecap="round" stroke-linejoin="round"/>
<path d="M11.667 6.66675V10.8334" stroke="#191F38" stroke-miterlimit="10" stroke-linecap="round" stroke-linejoin="round"/>
<path d="M15 6.66675V10.8334" stroke="#191F38" stroke-miterlimit="10" stroke-linecap="round" stroke-linejoin="round"/>
<path d="M14.167 14.1667H12.5003C12.042 14.1667 11.667 14.5417 11.667 15.0001V18.3334H15.0003V15.0001C15.0003 14.5417 14.6253 14.1667 14.167 14.1667Z" stroke="#191F38" stroke-miterlimit="10" stroke-linecap="round" stroke-linejoin="round"/>
<path d="M5 10.8333V14.1666" stroke="#191F38" stroke-miterlimit="10" stroke-linecap="round" stroke-linejoin="round"/>
<path d="M8.33301 15.8334V4.16675C8.33301 2.50008 9.16634 1.66675 10.833 1.66675H15.833C17.4997 1.66675 18.333 2.50008 18.333 4.16675V15.8334C18.333 17.5001 17.4997 18.3334 15.833 18.3334H10.833C9.16634 18.3334 8.33301 17.5001 8.33301 15.8334Z" stroke="#191F38" stroke-miterlimit="10" stroke-linecap="round" stroke-linejoin="round"/>
</svg>
