<svg width="20" height="20" viewBox="0 0 20 20" fill="none" xmlns="http://www.w3.org/2000/svg">
<path d="M14.4004 2.38574C14.4361 2.38584 14.4668 2.39945 14.4883 2.4209L17.5879 5.52051C17.6119 5.54448 17.625 5.57682 17.625 5.60938L17.6191 5.62695C17.6132 5.64073 17.607 5.65385 17.6025 5.66699C17.5946 5.68283 17.5879 5.69725 17.5801 5.70508L14.4883 8.79688C14.4736 8.81156 14.4591 8.82002 14.4463 8.8252C14.4331 8.83046 14.4178 8.83394 14.4004 8.83398C14.3827 8.83398 14.3668 8.83054 14.3535 8.8252C14.3407 8.82002 14.3262 8.81156 14.3115 8.79688C14.2901 8.77542 14.2774 8.74462 14.2773 8.70898C14.2773 8.67313 14.29 8.64164 14.3115 8.62012L16.3457 6.58691L17.1992 5.7334H2.5C2.42579 5.7334 2.37512 5.67396 2.375 5.61719C2.375 5.58708 2.38751 5.5559 2.41309 5.53027C2.43873 5.50463 2.46985 5.49219 2.5 5.49219H17.207L14.3115 2.59668C14.2902 2.57519 14.2774 2.54446 14.2773 2.50879C14.2773 2.47314 14.2902 2.44241 14.3115 2.4209C14.3331 2.39937 14.3645 2.38574 14.4004 2.38574Z" fill="#292D32" stroke="#697588"/>
<path d="M5.59961 11.1689C5.63546 11.1689 5.66695 11.1826 5.68848 11.2041C5.70979 11.2256 5.72266 11.2563 5.72266 11.292C5.72262 11.3277 5.70984 11.3584 5.68848 11.3799L3.6543 13.4131L2.80078 14.2666H17.5C17.5301 14.2666 17.5613 14.2791 17.5869 14.3047C17.6125 14.3303 17.6249 14.3615 17.625 14.3916C17.625 14.4217 17.6125 14.4529 17.5869 14.4785C17.5613 14.5042 17.5301 14.5166 17.5 14.5166H2.79297L5.68848 17.4121C5.70985 17.4336 5.72261 17.4643 5.72266 17.5C5.72266 17.5356 5.70977 17.5664 5.68848 17.5879C5.67383 17.6025 5.65931 17.611 5.64648 17.6162C5.63316 17.6216 5.61729 17.625 5.59961 17.625C5.58212 17.625 5.56692 17.6215 5.55371 17.6162C5.54085 17.611 5.5264 17.6026 5.51172 17.5879L2.41211 14.4883C2.38819 14.4644 2.37505 14.4329 2.375 14.4004C2.375 14.3996 2.37533 14.3948 2.37695 14.3867C2.37786 14.3822 2.37928 14.3773 2.38086 14.3721C2.38674 14.3584 2.39209 14.3451 2.39648 14.332C2.40426 14.3167 2.41232 14.3036 2.41992 14.2959L5.51172 11.2041C5.53317 11.1827 5.56393 11.169 5.59961 11.1689Z" fill="#292D32" stroke="#697588"/>
</svg>
