<svg width="20" height="20" viewBox="0 0 20 20" fill="none" xmlns="http://www.w3.org/2000/svg">
<path d="M13.3333 5.83333C13.7754 5.83333 14.1993 5.65774 14.5118 5.34518C14.8244 5.03262 15 4.60869 15 4.16667C15 3.72464 14.8244 3.30072 14.5118 2.98816C14.1993 2.67559 13.7754 2.5 13.3333 2.5C12.8913 2.5 12.4674 2.67559 12.1548 2.98816C11.8423 3.30072 11.6667 3.72464 11.6667 4.16667C11.6667 4.60869 11.8423 5.03262 12.1548 5.34518C12.4674 5.65774 12.8913 5.83333 13.3333 5.83333ZM13.3333 5.83333V14.1667C13.3333 19.1667 5 19.1667 5 14.1667V10.8333L6.66667 12.5" stroke="#697588" stroke-width="1.5" stroke-linecap="round" stroke-linejoin="round"/>
</svg>
