<svg width="13" height="13" viewBox="0 0 13 13" fill="none" xmlns="http://www.w3.org/2000/svg">
<path d="M12.2149 6.10743C12.2149 6.30181 12.1377 6.48822 12.0002 6.62567C11.8628 6.76311 11.6764 6.84033 11.482 6.84033H6.84033V11.482C6.84033 11.6764 6.76311 11.8628 6.62567 12.0002C6.48822 12.1377 6.30181 12.2149 6.10743 12.2149C5.91306 12.2149 5.72665 12.1377 5.5892 12.0002C5.45176 11.8628 5.37454 11.6764 5.37454 11.482V6.84033H0.732892C0.538517 6.84033 0.352103 6.76311 0.214659 6.62567C0.0772152 6.48822 0 6.30181 0 6.10743C0 5.91306 0.0772152 5.72665 0.214659 5.5892C0.352103 5.45176 0.538517 5.37454 0.732892 5.37454H5.37454V0.732892C5.37454 0.538517 5.45176 0.352103 5.5892 0.214659C5.72665 0.0772152 5.91306 0 6.10743 0C6.30181 0 6.48822 0.0772152 6.62567 0.214659C6.76311 0.352103 6.84033 0.538517 6.84033 0.732892V5.37454H11.482C11.6764 5.37454 11.8628 5.45176 12.0002 5.5892C12.1377 5.72665 12.2149 5.91306 12.2149 6.10743Z" fill="white"/>
</svg>
