<svg width="20" height="20" viewBox="0 0 20 20" fill="none" xmlns="http://www.w3.org/2000/svg">
<path d="M5.83301 2.79199H11.666C11.6962 2.79199 11.7273 2.80443 11.7529 2.83008C11.7786 2.85572 11.791 2.88684 11.791 2.91699C11.791 2.94714 11.7786 2.97826 11.7529 3.00391C11.7273 3.02955 11.6962 3.04199 11.666 3.04199H5.83301C4.56785 3.04199 3.53057 3.34932 2.81445 4.06543C2.09834 4.78154 1.79102 5.81883 1.79102 7.08398V12.917C1.79102 14.1821 2.09834 15.2194 2.81445 15.9355C3.53056 16.6515 4.56795 16.959 5.83301 16.959H14.166C15.4312 16.959 16.4685 16.6517 17.1846 15.9355C17.9007 15.2194 18.208 14.1821 18.208 12.917V8.75C18.2081 8.71995 18.2205 8.68864 18.2461 8.66309C18.2717 8.63766 18.303 8.625 18.333 8.625C18.3631 8.62509 18.3944 8.63753 18.4199 8.66309C18.4455 8.68864 18.4579 8.71995 18.458 8.75V12.917C18.458 14.3429 18.0489 15.3993 17.3486 16.0996C16.6484 16.7999 15.5919 17.209 14.166 17.209H5.83301C4.40708 17.209 3.34969 16.7999 2.64941 16.0996C1.94933 15.3993 1.54102 14.3427 1.54102 12.917V7.08398C1.54102 5.65806 1.94913 4.60067 2.64941 3.90039C3.34969 3.20011 4.40708 2.79199 5.83301 2.79199Z" fill="#292D32" stroke="#697588"/>
<path d="M5.72852 7.42383C5.77987 7.36062 5.85876 7.36274 5.90039 7.39648L5.90332 7.39941L8.51172 9.48242C8.93296 9.82022 9.47673 9.97363 9.99512 9.97363C10.5131 9.97358 11.0555 9.81969 11.4766 9.48242L11.4775 9.4834L12.4609 8.7002L12.4639 8.69629C12.5181 8.65223 12.5929 8.66853 12.625 8.71094L12.6309 8.71777L12.6357 8.72363C12.6687 8.76416 12.6684 8.81641 12.6484 8.85352L12.6221 8.88477L12.6123 8.89258L11.6289 9.67578L11.6221 9.68164C11.1926 10.0373 10.6024 10.2256 9.99902 10.2256C9.39669 10.2256 8.8049 10.0381 8.36523 9.67969L8.36133 9.67676L5.75391 7.59375C5.69286 7.54236 5.69512 7.46498 5.72852 7.42383Z" fill="#292D32" stroke="#697588"/>
<path d="M16.249 2.375C17.4644 2.375 18.4578 3.36763 18.458 4.58301C18.458 5.79853 17.4645 6.79199 16.249 6.79199C15.0336 6.79182 14.041 5.79842 14.041 4.58301C14.0412 3.36774 15.0338 2.37518 16.249 2.375ZM16.249 2.625C15.1731 2.62518 14.2912 3.50712 14.291 4.58301C14.291 5.65904 15.173 6.54181 16.249 6.54199C17.3252 6.54199 18.208 5.65915 18.208 4.58301C18.2078 3.50701 17.3251 2.625 16.249 2.625Z" fill="#292D32" stroke="#697588"/>
</svg>
