<svg width="20" height="20" viewBox="0 0 20 20" fill="none" xmlns="http://www.w3.org/2000/svg">
<path d="M15.8831 15.5583L14.0997 12L12.3164 15.5583" stroke="#697588" stroke-width="1.5" stroke-linecap="round" stroke-linejoin="round"/>
<path d="M12.6426 14.9248H15.5759" stroke="#697588" stroke-width="1.5" stroke-linecap="round" stroke-linejoin="round"/>
<path d="M14.1005 18.3329C11.7672 18.3329 9.86719 16.4412 9.86719 14.0995C9.86719 11.7662 11.7589 9.86621 14.1005 9.86621C16.4339 9.86621 18.3339 11.7578 18.3339 14.0995C18.3339 16.4412 16.4422 18.3329 14.1005 18.3329Z" stroke="#697588" stroke-width="1.5" stroke-linecap="round" stroke-linejoin="round"/>
<path d="M4.18269 1.66699H7.44935C9.17435 1.66699 10.0077 2.50034 9.96602 4.18368V7.45033C10.0077 9.17533 9.17435 10.0087 7.44935 9.96701H4.18269C2.49935 10.0003 1.66602 9.16699 1.66602 7.44199V4.17533C1.66602 2.50033 2.49935 1.66699 4.18269 1.66699Z" stroke="#697588" stroke-width="1.5" stroke-linecap="round" stroke-linejoin="round"/>
<path d="M7.50833 4.875H4.125" stroke="#697588" stroke-width="1.5" stroke-linecap="round" stroke-linejoin="round"/>
<path d="M5.80859 4.30859V4.87525" stroke="#697588" stroke-width="1.5" stroke-linecap="round" stroke-linejoin="round"/>
<path d="M6.65886 4.86719C6.65886 6.32552 5.51719 7.50884 4.11719 7.50884" stroke="#697588" stroke-width="1.5" stroke-linecap="round" stroke-linejoin="round"/>
<path d="M7.50846 7.50867C6.90012 7.50867 6.35013 7.18366 5.9668 6.66699" stroke="#697588" stroke-width="1.5" stroke-linecap="round" stroke-linejoin="round"/>
<path d="M1.66602 12.5C1.66602 15.725 4.27435 18.3333 7.49935 18.3333L6.62435 16.875" stroke="#697588" stroke-width="1.5" stroke-linecap="round" stroke-linejoin="round"/>
<path d="M18.3333 7.50033C18.3333 4.27533 15.725 1.66699 12.5 1.66699L13.375 3.12533" stroke="#697588" stroke-width="1.5" stroke-linecap="round" stroke-linejoin="round"/>
</svg>
