<svg width="15" height="15" viewBox="0 0 15 15" fill="none" xmlns="http://www.w3.org/2000/svg">
<path d="M0 13.125H15V14.375H0V13.125ZM7.5 11.25C6.33968 11.25 5.22688 10.7891 4.40641 9.96859C3.58594 9.14812 3.125 8.03532 3.125 6.875V0H4.375V6.875C4.375 7.7038 4.70424 8.49866 5.29029 9.08471C5.87634 9.67076 6.6712 10 7.5 10C8.3288 10 9.12366 9.67076 9.70971 9.08471C10.2958 8.49866 10.625 7.7038 10.625 6.875V0H11.875V6.875C11.875 8.03532 11.4141 9.14812 10.5936 9.96859C9.77312 10.7891 8.66032 11.25 7.5 11.25V11.25Z" fill="#191F38"/>
</svg>
