<svg width="19" height="19" viewBox="0 0 19 19" fill="none" xmlns="http://www.w3.org/2000/svg">
<path d="M9.42899 9.88895L12.7625 13.2224L11.6513 14.3336L10.2147 12.8976V17.2858H8.64327V12.896L7.20665 14.3336L6.09549 13.2224L9.42899 9.88895ZM9.42899 1.57153C12.2524 1.57153 14.5789 3.69894 14.8929 6.43821C16.725 6.93917 18.0718 8.61593 18.0718 10.6072C18.0718 12.8613 16.3461 14.7123 14.1437 14.9111L14.144 13.3293C15.4763 13.1383 16.5004 11.9924 16.5004 10.6072C16.5004 9.08846 15.2692 7.85725 13.7504 7.85725C13.5864 7.85725 13.4257 7.87163 13.2701 7.89968C13.3274 7.63269 13.3576 7.35563 13.3576 7.07153C13.3576 4.90185 11.5987 3.14296 9.42899 3.14296C7.2593 3.14296 5.50042 4.90185 5.50042 7.07153C5.50042 7.35563 5.53057 7.63269 5.58846 7.89913C5.4323 7.87163 5.27161 7.85725 5.10756 7.85725C3.58878 7.85725 2.35756 9.08846 2.35756 10.6072C2.35756 11.9432 3.31017 13.0566 4.57317 13.3054L4.71474 13.3294L4.71501 14.9111C2.51232 14.7128 0.786133 12.8616 0.786133 10.6072C0.786133 8.61593 2.13304 6.93917 3.96551 6.43833C4.27911 3.69894 6.60561 1.57153 9.42899 1.57153Z" fill="#4157FE"/>
</svg>
