<svg width="19" height="19" viewBox="0 0 19 19" fill="none" xmlns="http://www.w3.org/2000/svg">
<path d="M10.5261 1.94375L11.9927 4.87708C12.1927 5.28542 12.7261 5.67708 13.1761 5.75208L15.8344 6.19375C17.5344 6.47708 17.9344 7.71042 16.7094 8.92708L14.6427 10.9937C14.2927 11.3437 14.1011 12.0187 14.2094 12.5021L14.8011 15.0604C15.2677 17.0854 14.1927 17.8688 12.4011 16.8104L9.9094 15.3354C9.4594 15.0688 8.71773 15.0688 8.2594 15.3354L5.76773 16.8104C3.9844 17.8688 2.90106 17.0771 3.36773 15.0604L3.9594 12.5021C4.06773 12.0187 3.87606 11.3437 3.52606 10.9937L1.4594 8.92708C0.24273 7.71042 0.634397 6.47708 2.3344 6.19375L4.99273 5.75208C5.4344 5.67708 5.96773 5.28542 6.16773 4.87708L7.6344 1.94375C8.4344 0.352083 9.7344 0.352083 10.5261 1.94375Z" stroke="#191F38" stroke-width="1.5" stroke-linecap="round" stroke-linejoin="round"/>
</svg>
