<svg width="17" height="15" viewBox="0 0 17 15" fill="none" xmlns="http://www.w3.org/2000/svg">
<path d="M4.16699 0.5H12.5C13.6734 0.5 14.5748 0.793876 15.1807 1.35645C15.7797 1.9128 16.167 2.80416 16.167 4.16699V10C16.167 11.363 15.7797 12.2542 15.1807 12.8105C14.5748 13.3731 13.6734 13.667 12.5 13.667H4.16699C2.99369 13.667 2.09217 13.3731 1.48633 12.8105C0.887192 12.2542 0.5 11.363 0.5 10V4.16699C0.5 2.80402 0.887242 1.91279 1.48633 1.35645C2.09217 0.793876 2.99364 0.5 4.16699 0.5ZM13.3701 3.87598C12.9837 3.38249 12.2705 3.31821 11.7959 3.70117L9.1875 5.78418V5.78516C8.9755 5.95531 8.66461 6.05664 8.3291 6.05664C7.99376 6.05663 7.68366 5.95517 7.47168 5.78516L7.4707 5.78418L4.8623 3.70117C4.37083 3.30458 3.66833 3.40712 3.28711 3.87598L3.28125 3.88379C2.90676 4.36314 2.97992 5.07286 3.45996 5.46289L3.46289 5.46582L6.06738 7.54492V7.5459C6.71093 8.07062 7.53558 8.31634 8.33301 8.31641C9.13249 8.31641 9.94667 8.06972 10.5957 7.54883L13.2041 5.46582L13.207 5.46289C13.6834 5.07576 13.7604 4.37071 13.3809 3.88965H13.3818C13.3793 3.88632 13.3766 3.88317 13.374 3.87988C13.3731 3.87874 13.372 3.87711 13.3711 3.87598H13.3701Z" fill="#4157FE" stroke="#4157FE"/>
</svg>
