<svg width="20" height="20" viewBox="0 0 20 20" fill="none" xmlns="http://www.w3.org/2000/svg">
<rect width="20" height="20" rx="4" fill="#4157FE"/>
<path d="M14.9785 3L15.0351 3.05306C16.0936 4.0452 16.0936 5.65377 15.0351 6.64591L9.83145 11.5235L9.77484 11.4705C8.71638 10.4783 8.71638 8.86975 9.77484 7.87761L14.9785 3Z" fill="white"/>
<path d="M14.9785 16.4941L15.0351 16.4411C16.0936 15.4489 16.0936 13.8404 15.0351 12.8482L9.7702 7.9132L9.71359 7.96626C8.65513 8.9584 8.65513 10.567 9.71359 11.5591L14.9785 16.4941Z" fill="white"/>
<path d="M7.79102 16.5479L7.62742 16.5479C6.17667 16.5479 5.0006 15.3718 5.0006 13.921L5.0006 7.18411L5.1642 7.18411C6.61495 7.18411 7.79101 8.36017 7.79101 9.81092L7.79102 16.5479Z" fill="white"/>
<g clip-path="url(#clip0_7143_74547)">
<path d="M5 3.05469H5.16742C6.61606 3.05469 7.79042 4.22904 7.79042 5.67768V7.8542C7.47499 6.9626 6.64453 6.3561 5.69922 6.32699L5 6.30545V3.05469Z" fill="white"/>
</g>
<defs>
<clipPath id="clip0_7143_74547">
<rect width="3.17487" height="4.76231" fill="white" transform="translate(5 3.05469)"/>
</clipPath>
</defs>
</svg>
