<svg width="19" height="19" viewBox="0 0 19 19" fill="#FF9F00" xmlns="http://www.w3.org/2000/svg">
<path d="M6.71103 3.59C7.76686 1.69667 8.29436 0.75 9.08353 0.75C9.8727 0.75 10.4002 1.69667 11.456 3.59L11.7294 4.08C12.0294 4.61833 12.1794 4.8875 12.4127 5.065C12.646 5.2425 12.9377 5.30833 13.521 5.44L14.051 5.56C16.101 6.02417 17.1252 6.25583 17.3694 7.04C17.6127 7.82333 16.9144 8.64083 15.5169 10.275L15.1552 10.6975C14.7585 11.1617 14.5594 11.3942 14.4702 11.6808C14.381 11.9683 14.411 12.2783 14.471 12.8975L14.526 13.4617C14.7369 15.6425 14.8427 16.7325 14.2044 17.2167C13.566 17.7008 12.606 17.2592 10.6877 16.3758L10.1902 16.1475C9.6452 15.8958 9.3727 15.7708 9.08353 15.7708C8.79436 15.7708 8.52186 15.8958 7.97686 16.1475L7.4802 16.3758C5.56103 17.2592 4.60103 17.7008 3.96353 17.2175C3.32436 16.7325 3.4302 15.6425 3.64103 13.4617L3.69603 12.8983C3.75603 12.2783 3.78603 11.9683 3.69603 11.6817C3.6077 11.3942 3.40853 11.1617 3.01186 10.6983L2.6502 10.275C1.2527 8.64167 0.554363 7.82417 0.797696 7.04C1.04103 6.25583 2.06686 6.02333 4.11686 5.56L4.64686 5.44C5.22936 5.30833 5.5202 5.2425 5.75436 5.065C5.98853 4.8875 6.1377 4.61833 6.4377 4.08L6.71103 3.59Z" stroke="#FF9F00" stroke-width="1.5"/>
</svg>
